REM DIRINDEX 1\2,1\3,1\4
REM DIRNAME cjc141,folder01,folder02,folder03
TITLE ""
FILE "Track89.mp3" MP3
  TRACK 01 AUDIO
    TITLE "4:cjc141_529"
    INDEX 01 00:00:00
  TRACK 02 AUDIO
    TITLE "2:cjc141_530"
    INDEX 01 00:01:58
  TRACK 03 AUDIO
    TITLE "0:"
    INDEX 01 00:12:52
  TRACK 04 AUDIO
    TITLE "3:cjc141_531"
    INDEX 01 00:14:25
  TRACK 05 AUDIO
    TITLE "0:"
    INDEX 01 00:24:31
